name GIL06_static.mot
datacolumns 141
datarows 4
range 1.25833333 1.28333330
endheader

                time	           pelvis_tx	           pelvis_ty	           pelvis_tz	         pelvis_tilt	         pelvis_list	     pelvis_rotation	       hip_flexion_r	     hip_adduction_r	      hip_rotation_r	        knee_angle_r	       ankle_angle_r	    subtalar_angle_r	         mtp_angle_r	       hip_flexion_l	     hip_adduction_l	      hip_rotation_l	        knee_angle_l	       ankle_angle_l	    subtalar_angle_l	         mtp_angle_l	    lumbar_extension	      lumbar_bending	     lumbar_rotation	    ground_marker_px	    ground_marker_py	    ground_marker_pz	    ground_marker_px	    ground_marker_py	    ground_marker_pz	    ground_marker_px	    ground_marker_py	    ground_marker_pz	    ground_marker_px	    ground_marker_py	    ground_marker_pz	    ground_marker_px	    ground_marker_py	    ground_marker_pz	    ground_marker_px	    ground_marker_py	    ground_marker_pz	    ground_marker_px	    ground_marker_py	    ground_marker_pz	    ground_marker_px	    ground_marker_py	    ground_marker_pz	    ground_marker_px	    ground_marker_py	    ground_marker_pz	    ground_marker_px	    ground_marker_py	    ground_marker_pz	    ground_marker_px	    ground_marker_py	    ground_marker_pz	    ground_marker_px	    ground_marker_py	    ground_marker_pz	    ground_marker_px	    ground_marker_py	    ground_marker_pz	    ground_marker_px	    ground_marker_py	    ground_marker_pz	    ground_marker_px	    ground_marker_py	    ground_marker_pz	    ground_marker_px	    ground_marker_py	    ground_marker_pz	    ground_marker_px	    ground_marker_py	    ground_marker_pz	    ground_marker_px	    ground_marker_py	    ground_marker_pz	    ground_marker_px	    ground_marker_py	    ground_marker_pz	    ground_marker_px	    ground_marker_py	    ground_marker_pz	    ground_marker_px	    ground_marker_py	    ground_marker_pz	    ground_marker_px	    ground_marker_py	    ground_marker_pz	    ground_marker_px	    ground_marker_py	    ground_marker_pz	    ground_marker_px	    ground_marker_py	    ground_marker_pz	    ground_marker_px	    ground_marker_py	    ground_marker_pz	    ground_marker_px	    ground_marker_py	    ground_marker_pz	    ground_marker_px	    ground_marker_py	    ground_marker_pz	    ground_marker_px	    ground_marker_py	    ground_marker_pz	    ground_marker_px	    ground_marker_py	    ground_marker_pz	    ground_marker_px	    ground_marker_py	    ground_marker_pz	    ground_marker_px	    ground_marker_py	    ground_marker_pz	    ground_marker_px	    ground_marker_py	    ground_marker_pz	    ground_marker_px	    ground_marker_py	    ground_marker_pz	    ground_marker_px	    ground_marker_py	    ground_marker_pz	    ground_marker_px	    ground_marker_py	    ground_marker_pz	    ground_marker_px	    ground_marker_py	    ground_marker_pz	    ground_marker_px	    ground_marker_py	    ground_marker_pz	    ground_marker_px	    ground_marker_py	    ground_marker_pz	    ground_marker_px	    ground_marker_py	    ground_marker_pz	
          1.25833333	          0.86372542	          0.85129374	         -0.24412236	         -9.16238403	         -0.26176780	          0.80744857	          8.19076729	         -1.46850026	          4.08365917	         -0.53510344	         -1.62622333	          0.00000000	          0.00000000	         10.04057884	         -2.08169961	         -4.07728100	         -1.47727597	         -0.58844560	          0.00000000	          0.00000000	          7.05682230	          0.29919934	          0.17447616	          0.74901092	          0.78493375	         -0.24388447	          0.72932518	          0.79057258	         -0.16436137	          0.72702330	          0.79070133	         -0.31997341	          0.72317183	          0.42025161	         -0.15508105	          0.73236310	          0.42871505	         -0.33351293	          0.71626598	          0.05895304	         -0.11712603	          0.72639620	          0.05692362	         -0.36835051	          0.86372542	          0.85129374	         -0.24412236	          0.86554670	          0.85119188	         -0.12100092	          0.86190408	          0.85139561	         -0.36724380	          0.62667626	          0.94463724	         -0.20703286	          0.62098676	          0.94377750	         -0.26240227	          0.72952056	          0.42198065	         -0.08187619	          0.72601390	          0.43135849	         -0.40669045	          0.70868224	          0.42707530	         -0.22608340	          0.72746980	          0.41073763	         -0.25895238	          0.70582491	          0.06323866	         -0.07823043	          0.70261866	          0.06047488	         -0.40217751	          0.72197580	          0.06697987	         -0.15317208	          0.72332233	          0.07252227	         -0.32589495	          0.65400046	          0.04965025	         -0.12473506	          0.67234266	          0.04745296	         -0.33426750	          0.78922862	          1.28736484	         -0.26546967	          0.84579378	          1.21724343	         -0.26569211	          0.67199266	          1.35267496	         -0.24659073	          0.80659890	          1.29354990	         -0.21270896	          0.80515462	          1.29405129	         -0.29438585	          0.82443666	          0.04365670	         -0.10463220	          0.82200319	          0.04805126	         -0.38284993	          0.89095843	          0.57185370	         -0.09082183	          0.91008419	          0.60362250	         -0.34799737	          0.85285455	          0.59469593	         -0.11014500	          0.86318457	          0.62064159	         -0.35184032	          0.82397693	          0.52265722	         -0.11524976	          0.84399503	          0.54907751	         -0.35235754	          0.80081671	          0.20861134	         -0.10389062	          0.68624794	          0.17566197	         -0.45984998	          0.75511938	          0.21458903	         -0.11706292	          0.69270569	          0.18438847	         -0.41233850	
          1.26666665	          0.86375588	          0.85128582	         -0.24415337	         -9.17037392	         -0.24526449	          0.78415978	          8.19930649	         -1.49321723	          4.11075974	         -0.53849876	         -1.61882436	          0.00000000	          0.00000000	         10.02931786	         -2.05680585	         -4.07994366	         -1.45244443	         -0.63300902	          0.00000000	          0.00000000	          7.03566837	          0.34293562	          0.24881107	          0.74903655	          0.78493392	         -0.24397907	          0.72930884	          0.79057342	         -0.16446471	          0.72708207	          0.79072142	         -0.32007781	          0.72315723	          0.42023823	         -0.15507311	          0.73231000	          0.42871466	         -0.33350113	          0.71621877	          0.05895412	         -0.11716272	          0.72639054	          0.05693816	         -0.36832851	          0.86375588	          0.85128582	         -0.24415337	          0.86551738	          0.85116869	         -0.12105173	          0.86199439	          0.85140288	         -0.36725500	          0.62672317	          0.94466829	         -0.20708396	          0.62100154	          0.94380170	         -0.26236546	          0.72950572	          0.42198923	         -0.08186874	          0.72599405	          0.43133703	         -0.40668228	          0.70871222	          0.42705214	         -0.22607464	          0.72755027	          0.41060585	         -0.25913870	          0.70577747	          0.06323609	         -0.07826678	          0.70262867	          0.06048642	         -0.40216684	          0.72199839	          0.06697660	         -0.15319473	          0.72338754	          0.07256614	         -0.32590690	          0.65399837	          0.04964632	         -0.12474097	          0.67232829	          0.04746953	         -0.33423913	          0.78914028	          1.28737593	         -0.26535821	          0.84566939	          1.21722591	         -0.26568979	          0.67197770	          1.35271728	         -0.24642636	          0.80655563	          1.29350364	         -0.21259305	          0.80504650	          1.29408097	         -0.29429346	          0.82443178	          0.04365770	         -0.10463161	          0.82192218	          0.04797192	         -0.38284782	          0.89092016	          0.57186383	         -0.09084097	          0.91005236	          0.60363954	         -0.34803995	          0.85278726	          0.59477925	         -0.11011542	          0.86318457	          0.62064159	         -0.35184032	          0.82397342	          0.52265573	         -0.11526078	          0.84400982	          0.54907882	         -0.35243246	          0.80081159	          0.20870526	         -0.10387908	          0.68625164	          0.17568269	         -0.45981014	          0.75511938	          0.21458903	         -0.11706292	          0.69273263	          0.18429771	         -0.41244587	
          1.27499998	          0.86378503	          0.85128057	         -0.24416620	         -9.17790222	         -0.23411869	          0.76820451	          8.20575905	         -1.50911379	          4.12909269	         -0.53845221	         -1.61387885	          0.00000000	          0.00000000	         10.02361298	         -2.03805757	         -4.08657837	         -1.43420267	         -0.66739434	          0.00000000	          0.00000000	          7.04174042	          0.42904899	          0.41084588	          0.74906206	          0.78493482	         -0.24403518	          0.72930378	          0.79057926	         -0.16452679	          0.72712845	          0.79074019	         -0.32014063	          0.72314399	          0.42024073	         -0.15506487	          0.73227930	          0.42872721	         -0.33347255	          0.71618861	          0.05895815	         -0.11718959	          0.72639626	          0.05695735	         -0.36830586	          0.86378503	          0.85128057	         -0.24416620	          0.86550575	          0.85115331	         -0.12107618	          0.86206430	          0.85140783	         -0.36725619	          0.62678921	          0.94469821	         -0.20713799	          0.62101460	          0.94382191	         -0.26231018	          0.72949213	          0.42200544	         -0.08186079	          0.72598004	          0.43133271	         -0.40665576	          0.70923752	          0.42649439	         -0.22589494	          0.72763598	          0.41036347	         -0.25957501	          0.70574707	          0.06323688	         -0.07829335	          0.70264220	          0.06050429	         -0.40214986	          0.72222316	          0.06693456	         -0.15319258	          0.72358161	          0.07270793	         -0.32595861	          0.65399325	          0.04964619	         -0.12474678	          0.67232257	          0.04748587	         -0.33420679	          0.78903681	          1.28740954	         -0.26533461	          0.84556305	          1.21725881	         -0.26592186	          0.67198455	          1.35269439	         -0.24640091	          0.80657840	          1.29345000	         -0.21275528	          0.80487543	          1.29416096	         -0.29414433	          0.82442963	          0.04366226	         -0.10463782	          0.82186300	          0.04791747	         -0.38285223	          0.89089561	          0.57186931	         -0.09085969	          0.90999752	          0.60366434	         -0.34808296	          0.85270244	          0.59486777	         -0.11010728	          0.86318457	          0.62064159	         -0.35184032	          0.82418829	          0.52261198	         -0.11520932	          0.84403932	          0.54908139	         -0.35258231	          0.80080175	          0.20877771	         -0.10387085	          0.68624908	          0.17571858	         -0.45975918	          0.75525075	          0.21466576	         -0.11718911	          0.69281936	          0.18432035	         -0.41262370	
          1.28333330	          0.86381412	          0.85127807	         -0.24415721	         -9.18287468	         -0.22814572	          0.75905794	          8.20833206	         -1.51513600	          4.13815928	         -0.53388840	         -1.61656451	          0.00000000	          0.00000000	         10.01585197	         -2.02834129	         -4.08316088	         -1.41511273	         -0.68989021	          0.00000000	          0.00000000	          7.02443218	          0.54124528	          0.46342391	          0.74908972	          0.78493482	         -0.24405029	          0.72931272	          0.79058522	         -0.16454531	          0.72716641	          0.79075247	         -0.32015955	          0.72313666	          0.42026040	         -0.15506080	          0.73224056	          0.42873177	         -0.33344296	          0.71619046	          0.05895596	         -0.11718979	          0.72640437	          0.05697556	         -0.36827812	          0.86381412	          0.85127807	         -0.24415721	          0.86551172	          0.85114580	         -0.12107427	          0.86211646	          0.85141033	         -0.36724016	          0.62685961	          0.94471699	         -0.20717958	          0.62104040	          0.94382918	         -0.26224965	          0.72948295	          0.42202941	         -0.08185667	          0.72596002	          0.43132910	         -0.40662804	          0.70940417	          0.42630249	         -0.22582789	          0.72794312	          0.41016492	         -0.25959799	          0.70574778	          0.06323371	         -0.07829375	          0.70265919	          0.06052027	         -0.40212855	          0.72264493	          0.06684940	         -0.15315285	          0.72367895	          0.07279952	         -0.32597107	          0.65398002	          0.04965720	         -0.12474510	          0.67232668	          0.04749629	         -0.33418104	          0.78903449	          1.28742945	         -0.26536089	          0.84553170	          1.21725690	         -0.26612788	          0.67198956	          1.35273778	         -0.24637868	          0.80661285	          1.29335690	         -0.21282555	          0.80485749	          1.29423213	         -0.29412329	          0.82443154	          0.04366767	         -0.10464712	          0.82183409	          0.04789063	         -0.38285121	          0.89089835	          0.57186574	         -0.09087712	          0.90995193	          0.60367656	         -0.34811342	          0.85261422	          0.59478760	         -0.11000517	          0.86318457	          0.62064159	         -0.35184032	          0.82433039	          0.52258235	         -0.11517868	          0.84413403	          0.54907316	         -0.35260111	          0.80079377	          0.20881952	         -0.10387453	          0.68624318	          0.17576359	         -0.45971006	          0.75551349	          0.21481918	         -0.11744151	          0.69284964	          0.18434772	         -0.41270837	
